<?xml version="1.0" encoding="utf-8"?>
<!-- Generator: Adobe Illustrator 26.5.0, SVG Export Plug-In . SVG Version: 6.00 Build 0)  -->
<svg version="1.1" id="Layer_1" xmlns="http://www.w3.org/2000/svg" xmlns:xlink="http://www.w3.org/1999/xlink" x="0px" y="0px"
	 viewBox="0 0 125.57 125.57" style="enable-background:new 0 0 125.57 125.57;" xml:space="preserve">
<style type="text/css">
	.st0{fill:#0717AA;}
</style>
<g>
	<path class="st0" d="M84.99,4.27c-6.48,0-11.74,5.26-11.74,11.74s5.26,11.74,11.74,11.74s11.74-5.26,11.74-11.74
		S91.48,4.27,84.99,4.27z M84.99,21.57c-3.08,0-5.57-2.49-5.57-5.57s2.49-5.57,5.57-5.57s5.57,2.49,5.57,5.57
		S88.07,21.57,84.99,21.57z"/>
	<rect x="75.64" y="37.04" class="st0" width="18.71" height="84.26"/>
	<rect x="47.58" y="46.41" class="st0" width="18.71" height="9.36"/>
	<path class="st0" d="M30.38,79.06c-1,2.97-1.54,6.1-1.54,9.35c0,18.17,16.76,32.9,37.45,32.9V102.6
		C49.31,102.6,34.97,92.67,30.38,79.06z"/>
</g>
</svg>
